<svg xmlns="http://www.w3.org/2000/svg" width="1280" height="360" viewBox="0 0 1280 360" role="img" aria-label="Luanda Rodrigues — Data Analyst focused on Health, Operations and Decision Intelligence">
  <defs>
    <linearGradient id="bg" x1="0" y1="0" x2="1" y2="1">
      <stop offset="0" stop-color="#F7F4EE"/>
      <stop offset="1" stop-color="#E5DED2"/>
    </linearGradient>
    <pattern id="grid" width="72" height="72" patternUnits="userSpaceOnUse">
      <path d="M 72 0 L 0 0 0 72" fill="none" stroke="#111111" stroke-opacity="0.08" stroke-width="1"/>
    </pattern>
    <filter id="shadow" x="-20%" y="-20%" width="140%" height="140%">
      <feDropShadow dx="0" dy="16" stdDeviation="22" flood-color="#111111" flood-opacity="0.12"/>
    </filter>
  </defs>
  <rect width="1280" height="360" rx="34" fill="url(#bg)"/>
  <rect width="1280" height="360" rx="34" fill="url(#grid)"/>
  <rect x="74" y="70" width="138" height="138" rx="34" fill="#FFFDF8" stroke="#111111" stroke-opacity="0.12" filter="url(#shadow)"/>
  <text x="108" y="157" font-family="Inter, Arial, sans-serif" font-size="54" font-weight="800" fill="#111111" letter-spacing="-5">LR</text>
  <circle cx="158" cy="168" r="10" fill="#111111"/>
  <path d="M 154 164 L 185 145" stroke="#111111" stroke-width="5" stroke-linecap="round" opacity="0.65"/>
  <text x="250" y="122" font-family="Inter, Arial, sans-serif" font-size="58" font-weight="800" fill="#111111" letter-spacing="-3">Luanda Rodrigues</text>
  <text x="252" y="170" font-family="Inter, Arial, sans-serif" font-size="25" font-weight="600" fill="#34312D">Data Analyst focused on Health, Operations &amp; Decision Intelligence</text>
  <text x="252" y="218" font-family="Inter, Arial, sans-serif" font-size="20" font-weight="700" fill="#615B53" letter-spacing="1.5">HEALTH ANALYTICS · BI · MACHINE LEARNING · SQL · GRAPH ANALYTICS</text>
  <rect x="252" y="250" width="158" height="38" rx="19" fill="#111111"/>
  <text x="277" y="276" font-family="Inter, Arial, sans-serif" font-size="15" font-weight="800" fill="#F7F4EE">PORTFOLIO</text>
  <rect x="426" y="250" width="118" height="38" rx="19" fill="#FFFFFF" stroke="#111111" stroke-opacity="0.16"/>
  <text x="451" y="276" font-family="Inter, Arial, sans-serif" font-size="15" font-weight="800" fill="#111111">REMOTE</text>
  <rect x="560" y="250" width="174" height="38" rx="19" fill="#FFFFFF" stroke="#111111" stroke-opacity="0.16"/>
  <text x="585" y="276" font-family="Inter, Arial, sans-serif" font-size="15" font-weight="800" fill="#111111">RELOCATION</text>
</svg>